<svg width="33" height="33" viewBox="0 0 33 33" fill="none" xmlns="http://www.w3.org/2000/svg">
<path fill-rule="evenodd" clip-rule="evenodd" d="M16.9896 22.5208C15.7083 22.5208 15.0677 22.6146 13.8802 21.974C12.1406 21.0573 10.5885 19.2292 10.5885 16.9427C10.5885 15.7552 10.6823 15.1146 11.2292 14.0156C11.4115 13.651 11.5938 13.3802 11.776 13.1042C11.9583 12.8281 12.1406 12.5573 12.4167 12.3698C13.3333 11.5521 14.0625 11.0937 15.25 10.9115C17.0781 10.4531 19 10.9115 20.3698 12.099C22.3802 13.9271 23.0208 16.5781 21.9271 19.1406C21.5625 19.8698 21.375 20.0521 20.9219 20.599C20.9219 20.6927 20.9219 20.6927 20.8281 20.7812C20.0052 21.6042 18.5417 22.5208 16.9896 22.5208ZM23.2969 7.61979C23.2969 8.44271 23.2031 8.80729 23.8438 9.44792C24.026 9.53646 24.1198 9.63021 24.3021 9.71875C25.8594 10.3594 27.1354 9.35417 27.1354 8.16667C27.1354 7.52604 27.0469 7.06771 26.5885 6.61458C26.4948 6.52083 26.224 6.24479 26.1302 6.15625C25.401 5.88021 24.5781 5.97396 23.9375 6.52083C23.6615 6.70313 23.2969 7.16146 23.2969 7.61979ZM8.94271 0.671875H24.1198C26.4063 0.671875 28.5104 1.58333 30.0625 3.14062C31.6146 4.69271 32.5312 6.79688 32.5312 9.08333V24.2604C32.5312 26.5417 31.6146 28.6458 30.0625 30.2031C28.5104 31.7552 26.4063 32.6719 24.1198 32.6719H8.94271C6.65625 32.6719 4.55208 31.7552 3 30.2031C1.44792 28.6458 0.53125 26.5417 0.53125 24.2604V9.08333C0.53125 6.79688 1.44792 4.69271 3 3.14062C4.55208 1.58333 6.65625 0.671875 8.94271 0.671875ZM24.1198 2.77083H8.94271C7.20313 2.77083 5.65104 3.50521 4.46354 4.59896C3.36458 5.79167 2.63542 7.34375 2.63542 9.08333V24.2604C2.63542 25.9948 3.36458 27.5521 4.46354 28.7396C5.65104 29.8333 7.20313 30.5677 8.94271 30.5677H24.1198C25.8594 30.5677 27.4115 29.8333 28.599 28.7396C29.6979 27.5521 30.4271 25.9948 30.4271 24.2604V9.08333C30.4271 7.34375 29.6979 5.79167 28.599 4.59896C27.4115 3.50521 25.8594 2.77083 24.1198 2.77083ZM8.21354 16.0312C8.21354 16.9427 8.11979 17.7656 8.39583 18.6823C8.57813 19.776 9.30729 21.0573 9.94792 21.974L10.9531 22.9792C11.5937 23.4375 11.776 23.7083 12.6927 24.1667C13.5156 24.5313 14.7917 24.9896 15.7083 24.9896C17.6302 24.9896 18.4531 25.0833 20.099 24.2604C20.5521 24.0729 21.0104 23.8021 21.375 23.526L22.1979 22.8854C22.5677 22.6146 22.474 22.5208 22.6562 22.3385L23.1146 21.7917C23.2031 21.6979 23.2969 21.6042 23.3906 21.5156C23.4792 21.3333 23.6615 21.151 23.7552 20.9688C24.3958 19.776 24.849 18.5 24.849 17.0365C24.849 15.6615 24.7604 14.474 24.3021 13.5625C23.7552 12.2813 23.2031 11.3646 22.1979 10.4531C21.9271 10.2708 21.7448 10.1771 21.5625 9.99479C20.7396 9.26562 19.1823 8.625 17.9948 8.44271C15.9844 8.07292 13.6979 8.44271 12.1406 9.53646C11.6875 9.8125 10.6823 10.5417 10.4062 10.9115C10.3125 11.0937 10.3125 11.0937 10.1302 11.1823C9.85938 11.4583 9.48958 12.099 9.30729 12.4635C8.76042 13.3802 8.21354 14.75 8.21354 16.0312Z" fill="white"/>
</svg>
