<svg width="37" height="33" viewBox="0 0 37 33" fill="none" xmlns="http://www.w3.org/2000/svg">
<path fill-rule="evenodd" clip-rule="evenodd" d="M36.3386 1.32812C36.849 1.76041 37.0729 2.4427 36.9271 3.09895L30.6719 31.0365C30.5365 31.6458 30.0938 32.1406 29.5104 32.3437C28.9219 32.5469 28.2761 32.4271 27.7969 32.0312L19.6198 25.2865L16.1927 31.5156C15.8386 32.151 15.1406 32.5104 14.4271 32.4271C13.7083 32.3437 13.1094 31.8333 12.9115 31.1354L9.63543 19.5729L1.76564 17.9844C0.989597 17.8281 0.411472 17.1823 0.338555 16.3854C0.26043 15.5937 0.713555 14.849 1.44272 14.5469L34.5104 1.03125C35.1302 0.776036 35.8333 0.890621 36.3386 1.32812ZM8.31251 15.6302L11.4063 16.2552C12.0625 16.3854 12.5886 16.875 12.7708 17.526L15.1615 25.9583L17.5365 21.651C17.7917 21.1875 18.2396 20.8594 18.7604 20.7552C19.2813 20.6562 19.8177 20.7917 20.2292 21.1302L27.8229 27.3958L32.6875 5.66666L8.31251 15.6302Z" fill="white"/>
<path fill-rule="evenodd" clip-rule="evenodd" d="M36.1354 4.22396C36.9219 3.72917 37.1979 2.70833 36.7761 1.88021C36.3542 1.04688 35.3698 0.677083 34.5104 1.03125L1.44272 14.5469C0.713555 14.849 0.26043 15.5938 0.338555 16.3854C0.411472 17.1823 0.989597 17.8281 1.76564 17.9844L10.7031 19.7865C11.1511 19.8802 11.6198 19.7917 12.0052 19.5469L36.1354 4.22396Z" fill="white"/>
<path fill-rule="evenodd" clip-rule="evenodd" d="M36.9271 3.09896C37.1094 2.28126 36.7136 1.44792 35.9688 1.08334C35.224 0.713546 34.3281 0.911463 33.8021 1.5573L17.7136 21.3854C17.0886 22.1563 17.2031 23.2917 17.9636 23.9219L27.7969 32.0313C28.2761 32.4271 28.9219 32.5469 29.5104 32.3438C30.0938 32.1406 30.5365 31.6458 30.6719 31.0365L36.9271 3.09896Z" fill="white"/>
</svg>
